# xmcd
#
# Track frame offsets:
#	150
#	13966
#	31681
#	47471
#	59733
#	79350
#	100351
#	117223
#	132303
#	149251
#	161283
#
# Disc length: 2374 seconds
#
# Revision: 0
# Processed by: cddbd v1.5.1PL0 Copyright (c) Steve Scherf et al.
# Submitted via: dBpowerAMP V4.0
#
DISCID=9209440b
DTITLE=Ryan Wardlow - I Never Saw It Coming
DYEAR=2004
DGENRE=Country
TTITLE0=It Can't Be Gone
TTITLE1=I Never Saw It Coming
TTITLE2=Malibu
TTITLE3=Back To The Country
TTITLE4=Runnin'
TTITLE5=More Than You'll Ever Know
TTITLE6=Drownin' In Love
TTITLE7=Daddy Was A Pistol
TTITLE8=You Can't Change My Love
TTITLE9=Hey Cowboy
TTITLE10=Breathe
EXTD=A local KY boy I know is set to make it big. Feel free to check www.ryanwardlow.com
EXTT0=
EXTT1=
EXTT2=
EXTT3=
EXTT4=
EXTT5=
EXTT6=
EXTT7=
EXTT8=
EXTT9=
EXTT10=
PLAYORDER=
